# xmcd CD database file
#
# Track frame offsets:
#	150
#	17945
#	36480
#	59485
#	74055
#	87687
#	103775
#	123077
#	145165
#	159760
#
# Disc length: 2302 seconds
#
# Revision: 0
# Processed by: cddbd v1.5.1PL2 Copyright (c) Steve Scherf et al.
# Submitted via: CDex 1.51
#
DISCID=9108fc0a
DTITLE=JJ Johnson+Kai Winding - Jay And Kai
DYEAR=1954
DGENRE=Jazz
TTITLE0=Bernie's Tune
TTITLE1=Lament
TTITLE2=Blues For Trombones
TTITLE3=The Major
TTITLE4=Yesterdays
TTITLE5=Co-Op
TTITLE6=Reflections
TTITLE7=Blues In Tows
TTITLE8=What Is This Thing Called Love
TTITLE9=The Boy Next Door
EXTD=YEAR: 1954
EXTT0=
EXTT1=
EXTT2=
EXTT3=
EXTT4=
EXTT5=
EXTT6=
EXTT7=
EXTT8=
EXTT9=
PLAYORDER=
